<?xml version="1.0" encoding="utf-8"?>
<!-- Generator: Adobe Illustrator 22.0.1, SVG Export Plug-In . SVG Version: 6.00 Build 0)  -->
<svg version="1.1" id="Layer_1" xmlns="http://www.w3.org/2000/svg" xmlns:xlink="http://www.w3.org/1999/xlink" x="0px" y="0px"
	 viewBox="0 0 145.7 63.9" style="enable-background:new 0 0 145.7 63.9;" xml:space="preserve">
<style type="text/css">
	.st0{fill:#2D358F;}
</style>
<g>
	<ellipse transform="matrix(0.9732 -0.2298 0.2298 0.9732 -11.1632 8.1121)" class="st0" cx="29.3" cy="52" rx="11.9" ry="11.9"/>
	<circle class="st0" cx="113.2" cy="52" r="11.9"/>
	<path class="st0" d="M113.2,24.1L85.9,2.3C84,0.8,81.6,0,79.2,0H29c-3.3,0-6.4,1.5-8.4,4.1C14.7,11.3,3.4,27.3,0.8,38.9
		c-3.2,15.7,4.4,14.8,4.4,14.8h8.1v-2C13.2,43,20.2,36,28.8,35.9c8.7-0.1,15.7,6.9,15.8,15.6c0,0.1,0,0.2,0,0.3v2h52.3v-2
		c0.1-8.7,7.1-15.6,15.8-15.6c8.6,0.1,15.5,7,15.6,15.6v2h7c5.8,0,10.4-4.6,10.5-10.4c0,0,0-0.1,0-0.1v-3.5
		C145.7,20.6,113.2,24.1,113.2,24.1z M50.2,23.2H21.4c-0.6,0-1.1-0.4-1.1-1c0-0.3,0.1-0.5,0.2-0.7l6.7-10.7c1.5-2.4,4.2-3.8,7-3.8
		h16V23.2z M96.5,22.9c-0.1,0-0.1,0.1-0.2,0.1h-41V6.7h21.5c2.2,0,4.2,0.9,5.8,2.3l13.9,13.1C96.8,22.3,96.8,22.7,96.5,22.9z"/>
</g>
</svg>
