<svg xmlns="http://www.w3.org/2000/svg" viewBox="2511.543 5868.548 39.525 39.5">
  <defs>
    <style>
      .cls-1 {
        fill: #59b537;
      }
    </style>
  </defs>
  <g id="phone-receiver" transform="translate(2511.543 5868.548)">
    <g id="Group_128" data-name="Group 128" transform="translate(0 0)">
      <path id="Path_59" data-name="Path 59" class="cls-1" d="M39.506,31.361a1.911,1.911,0,0,1-.586,1.674l-5.565,5.523a3.132,3.132,0,0,1-.983.711,4.063,4.063,0,0,1-1.192.377q-.042,0-.251.021t-.544.021a19.289,19.289,0,0,1-2.574-.272,19.543,19.543,0,0,1-4.351-1.339,36.526,36.526,0,0,1-5.837-3.2,43.52,43.52,0,0,1-6.946-5.858,45.851,45.851,0,0,1-4.854-5.523,39.352,39.352,0,0,1-3.1-4.875A26.255,26.255,0,0,1,.969,14.561a21.534,21.534,0,0,1-.8-3.138A10.364,10.364,0,0,1,.007,9.352Q.049,8.6.049,8.515A4.067,4.067,0,0,1,.425,7.322a3.136,3.136,0,0,1,.711-.983L6.7.774A1.843,1.843,0,0,1,8.041.188,1.561,1.561,0,0,1,9,.5a2.909,2.909,0,0,1,.711.774L14.192,9.77a2.036,2.036,0,0,1,.209,1.464,2.608,2.608,0,0,1-.711,1.339l-2.05,2.05a.7.7,0,0,0-.146.272,1.033,1.033,0,0,0-.063.314,7.555,7.555,0,0,0,.753,2.008,18.437,18.437,0,0,0,1.548,2.448A27.179,27.179,0,0,0,16.7,22.992a27.716,27.716,0,0,0,3.347,2.992A19.331,19.331,0,0,0,22.5,27.553,6.506,6.506,0,0,0,24,28.16l.523.1A1,1,0,0,0,24.8,28.2a.7.7,0,0,0,.272-.147l2.385-2.427a2.563,2.563,0,0,1,1.757-.669,2.186,2.186,0,0,1,1.13.251h.042l8.076,4.77A2.1,2.1,0,0,1,39.506,31.361Z" transform="translate(0 -0.188)"/>
    </g>
  </g>
</svg>
