<?xml version="1.0" encoding="utf-8"?>
<!-- Generator: Adobe Illustrator 22.0.1, SVG Export Plug-In . SVG Version: 6.00 Build 0)  -->
<svg version="1.1" id="Layer_1" xmlns="http://www.w3.org/2000/svg" xmlns:xlink="http://www.w3.org/1999/xlink" x="0px" y="0px"
	 viewBox="0 0 54.4 54.4" style="enable-background:new 0 0 54.4 54.4;" xml:space="preserve">
<style type="text/css">
	.st0{fill:#74CEE9;}
</style>
<g>
	<path class="st0" d="M27.2,0C12.2,0,0,12.2,0,27.2s12.2,27.2,27.2,27.2s27.2-12.2,27.2-27.2S42.2,0,27.2,0z M27.2,52.4
		C13.3,52.4,2,41.1,2,27.2S13.3,2,27.2,2s25.2,11.3,25.2,25.2S41.1,52.4,27.2,52.4z"/>
	<path class="st0" d="M13.1,29.2c-2.1,0-3.9,1.7-3.9,3.9c0,2.1,1.7,3.9,3.9,3.9c2.1,0,3.9-1.7,3.9-3.9C17,30.9,15.2,29.2,13.1,29.2z
		"/>
	<path class="st0" d="M40.2,29.2c-2.1,0-3.9,1.7-3.9,3.9c0,2.1,1.7,3.9,3.9,3.9c2.1,0,3.9-1.7,3.9-3.9C44,30.9,42.3,29.2,40.2,29.2z
		"/>
	<path class="st0" d="M40.2,24l-8.8-7c-0.6-0.5-1.3-0.7-2.1-0.8H12.9c-1,0-2,0.5-2.6,1.3c-1.9,2.3-5.5,7.5-6.4,11.3
		c-1,5.1,1.4,4.9,1.4,4.9H8V33C8,30.2,10.2,28,13,28c2.8,0,5.1,2.3,5.1,5.1v0.7H35V33c0-2.8,2.3-5.1,5.1-5.1s5.1,2.3,5.1,5.1v0.7
		h2.3c1.9,0,3.4-1.5,3.4-3.4c0,0,0,0,0,0v-1.1C50.7,22.9,40.2,24,40.2,24z M19.8,18.5v5.2h-9.3c-0.2,0-0.3-0.1-0.3-0.3
		c0-0.1,0-0.1,0-0.2l2.2-3.5c0.5-0.8,1.3-1.2,2.3-1.2H19.8L19.8,18.5L19.8,18.5L19.8,18.5z M34.8,23.6
		C34.8,23.6,34.8,23.6,34.8,23.6l-13.2,0v-5.3h7c0.7,0,1.3,0.3,1.8,0.8l4.5,4.2C34.9,23.4,34.9,23.6,34.8,23.6z"/>
</g>
</svg>
