<?xml version="1.0" encoding="utf-8"?>
<!-- Generator: Adobe Illustrator 22.0.1, SVG Export Plug-In . SVG Version: 6.00 Build 0)  -->
<svg version="1.1" id="Layer_1" xmlns="http://www.w3.org/2000/svg" xmlns:xlink="http://www.w3.org/1999/xlink" x="0px" y="0px"
	 viewBox="0 0 54.4 54.4" style="enable-background:new 0 0 54.4 54.4;" xml:space="preserve">
<style type="text/css">
	.st0{fill:#74CEE9;}
</style>
<g>
	<path class="st0" d="M27.2,0C12.2,0,0,12.2,0,27.2s12.2,27.2,27.2,27.2s27.2-12.2,27.2-27.2S42.2,0,27.2,0z M43.9,46.2
		c-1.7-7.8-8.6-13.4-16.6-13.4c-8,0-14.9,5.6-16.6,13.4C5.3,41.5,2,34.8,2,27.2C2,13.3,13.3,2,27.2,2c13.9,0,25.2,11.3,25.2,25.2
		C52.4,34.8,49.1,41.5,43.9,46.2z"/>
	<ellipse transform="matrix(0.7071 -0.7071 0.7071 0.7071 -6.8887 25.4032)" class="st0" cx="27.2" cy="21" rx="7.9" ry="7.9"/>
</g>
</svg>
