<?xml version="1.0" encoding="utf-8"?>
<!-- Generator: Adobe Illustrator 22.0.1, SVG Export Plug-In . SVG Version: 6.00 Build 0)  -->
<svg version="1.1" id="Layer_1" xmlns="http://www.w3.org/2000/svg" xmlns:xlink="http://www.w3.org/1999/xlink" x="0px" y="0px"
	 viewBox="0 0 54.4 54.4" style="enable-background:new 0 0 54.4 54.4;" xml:space="preserve">
<style type="text/css">
	.st0{fill:#74CEE9;}
</style>
<path class="st0" d="M27.2,0C12.2,0,0,12.2,0,27.2s12.2,27.2,27.2,27.2s27.2-12.2,27.2-27.2S42.2,0,27.2,0z M23.6,52.2v-9.1h7.1v9.1
	c-1.1,0.2-2.3,0.2-3.5,0.2C26,52.4,24.8,52.3,23.6,52.2z M43.4,46.6V33.8H51L27.2,11.6L3.3,33.8H11v12.7c-5.5-4.6-9-11.5-9-19.3
	C2,13.3,13.3,2,27.2,2s25.2,11.3,25.2,25.2C52.4,35,48.9,41.9,43.4,46.6z"/>
</svg>
